<svg xmlns="http://www.w3.org/2000/svg" viewBox="0 0 192 192">
  <defs>
    <linearGradient id="g" x1="0%" y1="0%" x2="100%" y2="100%">
      <stop offset="0%" stop-color="#06b6d4"/>
      <stop offset="100%" stop-color="#2563eb"/>
    </linearGradient>
  </defs>
  <rect width="192" height="192" rx="40" fill="#060911"/>
  <rect x="20" y="20" width="152" height="152" rx="32" fill="url(#g)" opacity="0.15"/>
  <path d="M96 42c-22.6 0-41 18.4-41 41v15.2c-4.9 2.9-8.2 8.3-8.2 14.5 0 9.2 7.4 16.6 16.6 16.6h65.2c9.2 0 16.6-7.4 16.6-16.6 0-6.2-3.3-11.6-8.2-14.5V83c0-22.6-18.4-41-41-41zm0 18c12.7 0 23 10.3 23 23v12H73V83c0-12.7 10.3-23 23-23zm0 46.5c5.8 0 10.5 4.7 10.5 10.5S101.8 127.5 96 127.5 85.5 122.8 85.5 117 90.2 106.5 96 106.5z" fill="#e0f2fe"/>
  <circle cx="144" cy="52" r="10" fill="#22c55e"/>
</svg>
