<svg xmlns="http://www.w3.org/2000/svg" viewBox="0 0 512 512">
  <defs>
    <linearGradient id="g" x1="0%" y1="0%" x2="100%" y2="100%">
      <stop offset="0%" stop-color="#06b6d4"/>
      <stop offset="100%" stop-color="#2563eb"/>
    </linearGradient>
  </defs>
  <rect width="512" height="512" rx="112" fill="#060911"/>
  <rect x="54" y="54" width="404" height="404" rx="96" fill="url(#g)" opacity="0.15"/>
  <path d="M256 112c-60.8 0-110 49.2-110 110v40.8c-13.2 8-22 22.6-22 39.2 0 24.3 19.7 44 44 44h176c24.3 0 44-19.7 44-44 0-16.6-8.8-31.2-22-39.2V222c0-60.8-49.2-110-110-110zm0 48c34.2 0 62 27.8 62 62v32H194v-32c0-34.2 27.8-62 62-62zm0 125c15.5 0 28 12.5 28 28s-12.5 28-28 28-28-12.5-28-28 12.5-28 28-28z" fill="#e0f2fe"/>
  <circle cx="384" cy="138" r="28" fill="#22c55e"/>
</svg>
